<svg width="127" height="105" viewBox="0 0 127 105" fill="none" xmlns="http://www.w3.org/2000/svg">
<rect width="18" height="102" rx="6" transform="matrix(-0.756225 -0.654312 -0.654312 0.756225 80.3518 11.7776)" fill="#FDFDFD"/>
<path d="M59.1999 98.4556C59.1866 101.769 61.8622 104.466 65.1759 104.479L71.1758 104.503C74.4895 104.517 77.1865 101.841 77.1997 98.5274L77.5472 11.5281C77.5671 6.55762 73.5537 2.51211 68.5832 2.49226C63.6127 2.47241 59.5672 6.48572 59.5474 11.4562L59.1999 98.4556Z" fill="#FDFDFD"/>
<path d="M119.054 19.5733C122.367 19.5066 124.999 16.7668 124.932 13.4538L124.811 7.45501C124.745 4.14197 122.005 1.51029 118.692 1.57699L68.1741 2.59402C63.2045 2.69407 59.257 6.80379 59.3571 11.7733C59.4571 16.7429 63.5668 20.6904 68.5364 20.5904L119.054 19.5733Z" fill="#FDFDFD"/>
<path d="M120.054 52.5733C123.367 52.5066 125.999 49.7668 125.932 46.4538L125.811 40.455C125.745 37.142 123.005 34.5103 119.692 34.577L69.1741 35.594C64.2045 35.6941 60.257 39.8038 60.3571 44.7733C60.4571 49.7429 64.5668 53.6904 69.5364 53.5904L120.054 52.5733Z" fill="#FDFDFD"/>
<circle cx="44.1759" cy="76.4563" r="6" fill="#E88CF1"/>
</svg>
