<svg width="219" height="232" viewBox="0 0 219 232" fill="none" xmlns="http://www.w3.org/2000/svg">
<rect width="219" height="231.75" fill="black"/>
<rect width="18" height="102" rx="6" transform="matrix(-0.756225 -0.654312 -0.654312 0.756225 121.676 83.6964)" fill="#D9D9D9"/>
<path d="M100.524 170.374C100.511 173.688 103.186 176.385 106.5 176.398L112.5 176.422C115.814 176.435 118.511 173.76 118.524 170.446L118.871 83.4468C118.891 78.4763 114.878 74.4308 109.907 74.411V74.411C104.937 74.3911 100.891 78.4044 100.871 83.3749L100.524 170.374Z" fill="#D9D9D9"/>
<path d="M160.378 91.4921C163.691 91.4254 166.323 88.6856 166.256 85.3726L166.135 79.3738C166.069 76.0607 163.329 73.4291 160.016 73.4958L109.498 74.5128C104.529 74.6128 100.581 78.7226 100.681 83.6921V83.6921C100.781 88.6617 104.891 92.6092 109.861 92.5091L160.378 91.4921Z" fill="#D9D9D9"/>
<path d="M161.378 124.492C164.691 124.425 167.323 121.686 167.256 118.373L167.135 112.374C167.069 109.061 164.329 106.429 161.016 106.496L110.498 107.513C105.529 107.613 101.581 111.723 101.681 116.692V116.692C101.781 121.662 105.891 125.609 110.861 125.509L161.378 124.492Z" fill="#D9D9D9"/>
<circle cx="85.5" cy="148.375" r="6" fill="#E88CF1"/>
</svg>
